<svg xmlns="http://www.w3.org/2000/svg" viewBox="0 0 128 128" width="128" height="128" role="img" aria-label="Taxi"><title>Taxi</title><defs><radialGradient id="igo-taxi-sh" cx=".5" cy=".5" r=".5"><stop offset="0" stop-color="#1B1F3B" stop-opacity=".28"/><stop offset="1" stop-color="#1B1F3B" stop-opacity="0"/></radialGradient><linearGradient id="igo-taxi-ty" x1="0" y1="0" x2="0" y2="1"><stop offset="0" stop-color="#FFD84D"/><stop offset="1" stop-color="#E9A20C"/></linearGradient><linearGradient id="igo-taxi-gl" x1="0" y1="0" x2="1" y2="1"><stop offset="0" stop-color="#D9F1FF"/><stop offset="1" stop-color="#8CC8F0"/></linearGradient></defs><ellipse cx="64" cy="110" rx="52" ry="7" fill="url(#igo-taxi-sh)"/><path d="M30 62 L42 40 Q45 35 51 35 H81 Q87 35 90 40 L104 62 Z" fill="url(#igo-taxi-ty)"/><path d="M37 60 L46 43 Q47 41 49 41 H63 V60 Z" fill="url(#igo-taxi-gl)"/><path d="M68 41 H81 Q84 41 86 44 L96 60 H68 Z" fill="url(#igo-taxi-gl)"/><path d="M44 52 L50 43" stroke="#fff" stroke-width="3" opacity=".7" stroke-linecap="round"/><rect x="52" y="23" width="26" height="13" rx="3.5" fill="#2B2D36"/><rect x="55" y="26" width="20" height="7" rx="1.5" fill="#FFE27A"/><rect x="10" y="60" width="108" height="32" rx="11" fill="url(#igo-taxi-ty)"/><path d="M18 66 H110" stroke="#fff" stroke-width="3" opacity=".45" stroke-linecap="round"/><g fill="#2B2D36"><rect x="28" y="72" width="6" height="5"/><rect x="34" y="77" width="6" height="5"/><rect x="40" y="72" width="6" height="5"/><rect x="46" y="77" width="6" height="5"/><rect x="52" y="72" width="6" height="5"/><rect x="58" y="77" width="6" height="5"/><rect x="64" y="72" width="6" height="5"/><rect x="70" y="77" width="6" height="5"/><rect x="76" y="72" width="6" height="5"/><rect x="82" y="77" width="6" height="5"/><rect x="88" y="72" width="6" height="5"/><rect x="94" y="77" width="6" height="5"/></g><rect x="64" y="62" width="2" height="24" fill="#C98A0C" opacity=".6"/><rect x="110" y="68" width="8" height="8" rx="3" fill="#FFF6C9"/><rect x="10" y="68" width="6" height="8" rx="2.5" fill="#F0453A"/><circle cx="36" cy="92" r="14" fill="#2B2D36"/><circle cx="36" cy="92" r="6" fill="#C9CDD4"/><circle cx="92" cy="92" r="14" fill="#2B2D36"/><circle cx="92" cy="92" r="6" fill="#C9CDD4"/></svg>
